<svg xmlns="http://www.w3.org/2000/svg" width="512" height="512" viewBox="0 0 512 512">
  <defs>
    <linearGradient id="fondo" x1="0" y1="0" x2="1" y2="1">
      <stop offset="0" stop-color="#2b7de9"/>
      <stop offset="1" stop-color="#0b3d91"/>
    </linearGradient>
    <linearGradient id="panel" x1="0" y1="0" x2="1" y2="1">
      <stop offset="0" stop-color="#ffd24d"/>
      <stop offset="1" stop-color="#f59e0b"/>
    </linearGradient>
  </defs>

  <rect x="16" y="16" width="480" height="480" rx="100" fill="url(#fondo)"/>

  <!-- sol -->
  <circle cx="178" cy="178" r="72" fill="url(#panel)"/>
  <g stroke="#ffd24d" stroke-width="16" stroke-linecap="round">
    <line x1="178" y1="74" x2="178" y2="40"/>
    <line x1="178" y1="282" x2="178" y2="316"/>
    <line x1="74" y1="178" x2="40" y2="178"/>
    <line x1="282" y1="178" x2="316" y2="178"/>
    <line x1="104" y1="104" x2="80" y2="80"/>
    <line x1="252" y1="104" x2="276" y2="80"/>
    <line x1="104" y1="252" x2="80" y2="276"/>
    <line x1="252" y1="252" x2="276" y2="276"/>
  </g>

  <!-- panel solar -->
  <rect x="96" y="300" width="320" height="152" rx="16" fill="url(#panel)"/>
  <rect x="110" y="314" width="292" height="124" rx="8" fill="#0a2a66"/>
  <g stroke="#3d7be8" stroke-width="10">
    <line x1="258" y1="314" x2="258" y2="438"/>
    <line x1="197" y1="314" x2="197" y2="438"/>
    <line x1="319" y1="314" x2="319" y2="438"/>
    <line x1="110" y1="376" x2="402" y2="376"/>
  </g>
</svg>
